<?xml version="1.0" encoding="utf-8"?>
<!-- Generator: Adobe Illustrator 16.0.0, SVG Export Plug-In . SVG Version: 6.00 Build 0)  -->
<!DOCTYPE svg PUBLIC "-//W3C//DTD SVG 1.1//EN" "http://www.w3.org/Graphics/SVG/1.1/DTD/svg11.dtd">
<svg version="1.1" id="Layer_1" xmlns="http://www.w3.org/2000/svg" xmlns:xlink="http://www.w3.org/1999/xlink" x="0px" y="0px"
	 width="419.224px" height="314.5px" viewBox="35.776 87 419.224 314.5" enable-background="new 35.776 87 419.224 314.5"
	 xml:space="preserve">
<g>
	<path class="mod-comp-wires__intersection js-intersection" js-data-int="1" fill="transparent" d="M189.921,179.239c6.316-7.814,13.223-15.514,20.701-22.992c10.699-10.699,21.851-20.238,33.146-28.529
		C190.13,88.343,133.248,77.177,106.15,104.275c-9.425,9.424-14.211,22.457-14.803,37.696
		C119.56,140.877,155.353,154.194,189.921,179.239z"/>
	<path class="mod-comp-wires__intersection js-intersection" js-data-int="2" fill="transparent" d="M297.617,179.239c34.568-25.045,70.361-38.361,98.575-37.268c-0.591-15.241-5.379-28.272-14.803-37.696
		c-27.098-27.098-83.98-15.931-137.62,23.442c11.295,8.291,22.448,17.83,33.147,28.529
		C284.394,163.726,291.301,171.425,297.617,179.239z"/>
	<path class="mod-comp-wires__intersection js-intersection" js-data-int="3" fill="transparent" d="M189.921,179.239c11.755,8.517,23.37,18.384,34.495,29.508c6.95,6.95,13.406,14.091,19.353,21.337
		c5.948-7.246,12.404-14.387,19.354-21.337c11.125-11.125,22.739-20.991,34.494-29.508c-6.315-7.814-13.223-15.514-20.701-22.992
		c-10.699-10.699-21.852-20.238-33.147-28.529c-11.295,8.291-22.447,17.83-33.146,28.529
		C203.145,163.726,196.237,171.425,189.921,179.239z"/>
	<path class="mod-comp-wires__intersection js-intersection" js-data-int="4" fill="transparent" d="M196.347,341.816c-15.241-0.591-28.272-5.377-37.697-14.803c-14.539-14.539-18.055-37.656-12.118-64.242
		c-36.513-40.911-56.516-86.468-55.185-120.799c-15.241,0.591-28.272,5.379-37.697,14.804
		c-32.804,32.803-9.535,109.257,51.972,170.765c45.833,45.832,99.96,70.426,138.146,66.414c-13.06-1.371-24.259-6.082-32.619-14.441
		C201.726,370.09,196.938,357.058,196.347,341.816z"/>
	<path class="mod-comp-wires__intersection js-intersection" js-data-int="5" fill="transparent" d="M146.532,262.771c5.83-26.106,20.782-55.558,43.389-83.533c-34.568-25.045-70.361-38.361-98.574-37.267
		C90.016,176.303,110.019,221.861,146.532,262.771z"/>
	<path class="mod-comp-wires__intersection js-intersection" js-data-int="6" fill="transparent" d="M200.336,309.939c-14.379-9.649-28.66-21.344-42.213-34.898c-4.031-4.03-7.894-8.127-11.59-12.27
		c-5.937,26.587-2.421,49.703,12.118,64.242c9.425,9.426,22.457,14.213,37.697,14.803
		C195.966,331.986,197.332,321.238,200.336,309.939z"/>
	<path class="mod-comp-wires__intersection js-intersection" js-data-int="7" fill="transparent" d="M200.336,309.939c6.718-25.269,21.618-53.275,43.433-79.855c-5.947-7.246-12.403-14.387-19.353-21.337
		c-11.125-11.125-22.739-20.991-34.495-29.508c-22.608,27.974-37.559,57.425-43.389,83.533c3.697,4.142,7.559,8.239,11.59,12.27
		C171.676,288.596,185.957,300.289,200.336,309.939z"/>
	<path class="mod-comp-wires__intersection js-intersection" js-data-int="8" fill="transparent" d="M433.889,156.775c-9.425-9.425-22.456-14.212-37.697-14.804c1.331,34.331-18.673,79.889-55.186,120.799
		c5.938,26.587,2.422,49.703-12.117,64.243c-9.425,9.424-22.457,14.211-37.697,14.803c-0.591,15.24-5.379,28.272-14.802,37.697
		c-8.36,8.359-19.559,13.069-32.62,14.441c38.187,4.012,92.315-20.582,138.147-66.414
		C443.424,266.033,466.692,189.579,433.889,156.775z"/>
	<path class="mod-comp-wires__intersection js-intersection" js-data-int="9" fill="transparent" d="M287.203,309.939c3.005,11.299,4.37,22.047,3.989,31.877c15.241-0.591,28.272-5.377,37.697-14.803
		c14.539-14.539,18.056-37.656,12.117-64.242c-3.697,4.143-7.559,8.24-11.59,12.27C315.861,288.596,301.582,300.289,287.203,309.939
		z"/>
	<path class="mod-comp-wires__intersection js-intersection" js-data-int="10" fill="transparent" d="M297.617,179.239c22.607,27.974,37.558,57.425,43.389,83.533c36.514-40.911,56.518-86.468,55.186-120.799
		C367.978,140.878,332.185,154.194,297.617,179.239z"/>
	<path class="mod-comp-wires__intersection js-intersection" js-data-int="11" fill="transparent" d="M263.123,208.748c-6.949,6.95-13.405,14.091-19.354,21.337c21.815,26.58,36.715,54.586,43.434,79.855
		c14.379-9.649,28.659-21.344,42.213-34.898c4.03-4.03,7.893-8.126,11.59-12.27c-5.83-26.106-20.782-55.558-43.389-83.533
		C285.861,187.756,274.248,197.623,263.123,208.748z"/>
	<path class="mod-comp-wires__intersection js-intersection" js-data-int="12" fill="transparent" d="M291.191,341.816c-14.251,0.553-30.436-2.57-47.422-9.026c-16.986,6.456-33.17,9.579-47.422,9.026
		c0.591,15.241,5.379,28.273,14.803,37.697c8.36,8.361,19.559,13.07,32.619,14.441c13.06-1.37,24.26-6.08,32.62-14.441
		C285.812,370.09,290.601,357.058,291.191,341.816z"/>
	<path class="mod-comp-wires__intersection js-intersection" js-data-int="13" fill="transparent" d="M287.203,309.939c-14.596,9.795-29.289,17.475-43.434,22.851c16.987,6.456,33.171,9.579,47.422,9.026
		C291.573,331.986,290.208,321.238,287.203,309.939z"/>
	<path class="mod-comp-wires__intersection js-intersection" js-data-int="14" fill="transparent" d="M196.347,341.816c14.251,0.553,30.436-2.57,47.422-9.026c-14.143-5.376-28.838-13.056-43.434-22.851
		C197.332,321.238,195.966,331.986,196.347,341.816z"/>
	<path class="mod-comp-wires__intersection js-intersection" js-data-int="15" fill="transparent" d="M243.769,230.084c-21.814,26.58-36.714,54.586-43.434,79.855c14.596,9.795,29.291,17.475,43.434,22.851
		c14.144-5.376,28.838-13.056,43.434-22.851C280.484,284.671,265.584,256.665,243.769,230.084z"/>
</g>
<g class="hover_group">

		<ellipse transform="matrix(-0.7071 -0.7071 0.7071 -0.7071 218.8386 521.9348)" fill="none" stroke="#000000" stroke-width="3" stroke-dasharray="15,10,4,10" cx="217.516" cy="215.644" rx="157.498" ry="83.999"/>

		<ellipse transform="matrix(-0.7071 0.7071 -0.7071 -0.7071 613.436 177.2005)" fill="none" stroke="#000000" stroke-width="3" cx="270.019" cy="215.647" rx="157.499" ry="83.999"/>

		<ellipse transform="matrix(-0.7071 -0.7071 0.7071 -0.7071 92.0945 574.433)" fill="none" stroke="#000000" stroke-width="3" stroke-dasharray="3" cx="165.017" cy="268.143" rx="157.499" ry="83.999"/>

		<ellipse transform="matrix(-0.7071 0.7071 -0.7071 -0.7071 740.1848 229.7023)" fill="none" stroke="#000000" stroke-width="8" stroke-dasharray="8" cx="322.52" cy="268.148" rx="157.498" ry="83.999"/>
</g>
</svg>
